<?xml version="1.0" encoding="UTF-8"?>
<svg width="180px" height="34px" viewBox="0 0 180 34" version="1.1" xmlns="http://www.w3.org/2000/svg" xmlns:xlink="http://www.w3.org/1999/xlink">
    <title>180x34@1x</title>
    <defs>
        <linearGradient x1="4.94169347%" y1="27.6896644%" x2="73.7663718%" y2="68.8065867%" id="linearGradient-1">
            <stop stop-color="#0F1D9A" offset="0%"></stop>
            <stop stop-color="#2C48C6" offset="100%"></stop>
        </linearGradient>
        <path d="M0.8,19.8846154 L1.28,18.6565934 L3.784,18.6565934 L4.272,19.8846154 L5.072,19.8846154 L2.68,14.0494505 L2.392,14.0494505 L0,19.8846154 L0.8,19.8846154 Z M3.52,17.9972527 L1.544,17.9972527 L2.536,15.5 L3.52,17.9972527 Z M7.416,20 C8.464,20 9.288,19.3571429 9.288,18.3351648 C9.288,16.5714286 6.864,16.6456044 6.864,15.4752747 C6.864,15.021978 7.208,14.6840659 7.784,14.6840659 C8.32,14.6840659 8.808,14.9642857 9.04,15.1868132 L9.04,14.3214286 C8.808,14.1813187 8.328,14 7.776,14 C6.8,14 6.08,14.5604396 6.08,15.532967 C6.08,17.2554945 8.504,17.1153846 8.504,18.3598901 C8.504,18.9203297 8.04,19.3159341 7.4,19.3159341 C6.84,19.3159341 6.304,19.0357143 6.04,18.7802198 L6.04,19.6291209 C6.264,19.7692308 6.816,20 7.416,20 Z M13.736,19.8846154 L14.216,18.6565934 L16.72,18.6565934 L17.208,19.8846154 L18.008,19.8846154 L15.616,14.0494505 L15.328,14.0494505 L12.936,19.8846154 L13.736,19.8846154 Z M16.456,17.9972527 L14.48,17.9972527 L15.472,15.5 L16.456,17.9972527 Z M23.072,20 C24.12,20 24.944,19.3571429 24.944,18.3351648 C24.944,16.5714286 22.52,16.6456044 22.52,15.4752747 C22.52,15.021978 22.864,14.6840659 23.44,14.6840659 C23.976,14.6840659 24.464,14.9642857 24.696,15.1868132 L24.696,14.3214286 C24.464,14.1813187 23.984,14 23.432,14 C22.456,14 21.736,14.5604396 21.736,15.532967 C21.736,17.2554945 24.16,17.1153846 24.16,18.3598901 C24.16,18.9203297 23.696,19.3159341 23.056,19.3159341 C22.496,19.3159341 21.96,19.0357143 21.696,18.7802198 L21.696,19.6291209 C21.92,19.7692308 22.472,20 23.072,20 Z M29.784,19.8846154 L29.784,19.2252747 L27.416,19.2252747 L27.416,17.1236264 L29.544,17.1236264 L29.544,16.4642857 L27.416,16.4642857 L27.416,14.7747253 L29.784,14.7747253 L29.784,14.1153846 L26.664,14.1153846 L26.664,19.8846154 L29.784,19.8846154 Z M32.376,19.8846154 L32.376,17.5686813 L33.32,17.5686813 L34.864,19.8846154 L35.8,19.8846154 L34.064,17.4203297 C34.76,17.1648352 35.16,16.5961538 35.16,15.8461538 C35.16,14.8076923 34.4,14.1153846 33.112,14.1153846 L31.624,14.1153846 L31.624,19.8846154 L32.376,19.8846154 Z M33.112,16.9175824 L32.376,16.9175824 L32.376,14.7747253 L33.112,14.7747253 C33.928,14.7747253 34.36,15.1373626 34.36,15.8461538 C34.36,16.5549451 33.928,16.9175824 33.112,16.9175824 Z M38.816,19.9505495 L41.128,14.1153846 L40.328,14.1153846 L38.672,18.4752747 L37.016,14.1153846 L36.216,14.1153846 L38.528,19.9505495 L38.816,19.9505495 Z M43.168,19.8846154 L43.168,14.1153846 L42.416,14.1153846 L42.416,19.8846154 L43.168,19.8846154 Z M47.592,20 C48.152,20 48.688,19.8598901 49.12,19.6291209 L49.12,18.8049451 C48.76,19.0604396 48.232,19.3076923 47.608,19.3076923 C46.448,19.3076923 45.688,18.4093407 45.688,17 C45.688,15.5906593 46.448,14.6923077 47.608,14.6923077 C48.232,14.6923077 48.76,14.9395604 49.12,15.1950549 L49.12,14.3708791 C48.688,14.1401099 48.152,14 47.592,14 C45.984,14 44.888,15.2362637 44.888,17 C44.888,18.7637363 45.984,20 47.592,20 Z M54,19.8846154 L54,19.2252747 L51.632,19.2252747 L51.632,17.1236264 L53.76,17.1236264 L53.76,16.4642857 L51.632,16.4642857 L51.632,14.7747253 L54,14.7747253 L54,14.1153846 L50.88,14.1153846 L50.88,19.8846154 L54,19.8846154 Z" id="path-2"></path>
    </defs>
    <g id="180x34" stroke="none" stroke-width="1" fill="none" fill-rule="evenodd">
        <g id="photo">
            <g id="Group">
                <path d="M20.0441176,23.8 C20.4931871,24.2044053 20.9422566,24.6088106 21.391326,24.923348 C22.1098372,25.4625551 22.9181622,25.9118943 23.7713942,26.2713656 C25.1186025,26.8555066 26.5107178,27.214978 27.9477401,27.3497797 C28.3069957,27.3947137 28.6662512,27.3947137 29.0255068,27.3947137 C31.4055749,27.3947137 33.7856431,26.7656388 35.8513626,25.507489 C35.8962695,25.4625551 35.9411765,25.4625551 35.9411765,25.4625551 C35.8962695,25.5524229 35.8962695,25.6422907 35.8513626,25.7321586 C35.0430376,27.9788546 33.5611083,30.0907489 31.4504819,31.6185022 C29.5643902,33.0114537 27.4088568,33.7753304 25.2084164,34 L25.2084164,34 L24.759347,33.6854626 C24.5797192,33.5506608 24.4000914,33.415859 24.2653706,33.2810573 C22.3343719,31.6185022 20.9422566,29.3268722 20.3584663,26.8105727 C20.1339315,25.8220264 20.0441176,24.8334802 20.0441176,23.8 Z M20.0756851,18.36 C19.8456938,18.8993103 19.6157025,19.4386207 19.4317094,19.977931 C19.1557199,20.8767816 18.9717268,21.7756322 18.8797303,22.6744828 L18.8797303,22.6744828 L18.8422503,23.1538081 C18.7650186,24.4316801 18.8695085,25.7056066 19.1557199,26.944023 C19.7996955,29.6405747 21.3636364,32.1124138 23.4795563,33.9101149 C23.4795563,33.9550575 23.5255546,33.9550575 23.4795563,34 L23.4795563,34 L23.2035668,34 C19.3857112,33.8651724 15.6138538,32.1124138 13.1759461,28.8316092 C12.6239669,28.0675862 12.1179861,27.2586207 11.75,26.4047126 L11.75,26.4047126 L11.933993,25.9552874 C12.0259896,25.7755172 12.0719878,25.5508046 12.1639843,25.3710345 C13.1759461,22.9890805 14.9698782,20.9666667 17.223793,19.6183908 C18.1437582,19.0790805 19.0637234,18.6745977 20.0756851,18.36 Z M31.4062987,10.88 C31.4975427,10.968001 31.5431647,11.0120015 31.6344087,11.056002 C32.5468486,11.76001 33.3680446,12.5960194 34.0979966,13.5200299 C36.3790965,16.5120638 37.1090484,20.1641052 36.3334745,23.508143 L36.3334745,23.508143 L35.9228765,23.8161465 C35.7403885,23.9041475 35.5579005,24.036149 35.3754125,24.12415 C33.1399346,25.4001645 30.4938587,26.0161714 27.8934048,25.7961689 C26.8440989,25.708168 25.8404149,25.4881655 24.8823529,25.180162 C25.3841949,24.8721585 25.8860369,24.6081555 26.3422569,24.2561515 C27.0722089,23.7281455 27.7565388,23.1121385 28.3952468,22.4521311 L28.3952468,22.4521311 L28.6895087,22.1313674 C29.5517644,21.1571964 30.2292511,20.0761042 30.7219687,18.8880907 C31.8168967,16.4240628 32.0450066,13.6080309 31.4062987,10.968001 C31.3606767,10.9240005 31.3606767,10.9240005 31.4062987,10.88 Z M14.6966971,11.56 L15.1946625,11.6035017 C15.4210104,11.6035017 15.6020887,11.6470034 15.8284366,11.6470034 C18.4088028,11.8210101 20.8986298,12.8650505 22.8452218,14.4746128 C23.6148047,15.127138 24.2938484,15.823165 24.8823529,16.649697 C24.339118,16.6061953 23.7506134,16.5626936 23.1621088,16.5626936 C22.2114476,16.5626936 21.306056,16.6931987 20.4006644,16.8672054 C18.9973073,17.1717172 17.6392199,17.6937374 16.3716716,18.433266 C14.0176534,19.8253199 12.116331,21.9569024 11.029861,24.3929966 C11.029861,24.3929966 10.9845914,24.4364983 10.9845914,24.48 C10.9393218,24.3929966 10.9393218,24.3059933 10.8487827,24.1754882 C9.53596482,19.6948148 10.9393218,14.7356229 14.6966971,11.56 L14.6966971,11.56 Z M16.8341971,10.994217 C21.0136573,8.22459645 26.3288402,8.17992515 30.4628714,10.547504 L30.4628714,10.547504 L30.6445871,11.0388883 C30.690016,11.2175735 30.7354449,11.44093 30.7808738,11.6196152 C31.3714497,14.1212079 31.1443052,16.7568145 30.144869,19.1243934 C29.7360088,20.0624906 29.2362908,20.9559166 28.600286,21.76 C28.4639992,21.2239444 28.3277125,20.6432175 28.1459968,20.1071619 C27.8734233,19.213736 27.4645631,18.4096526 27.0102739,17.6055692 L27.0102739,17.6055692 L26.7596983,17.2069591 C26.0697272,16.1534762 25.2082603,15.1784286 24.2391102,14.3445644 C22.1039512,12.5577124 19.4236453,11.44093 16.6524815,11.2175735 C16.6070526,11.2175735 16.5616237,11.2175735 16.6070526,11.1729022 C16.6979104,11.0835596 16.7433393,11.0388883 16.8341971,10.994217 Z M34.3499347,1.84745135 C37.0240069,-0.82069301 41.6144976,-0.558252581 44.600545,2.37233221 C47.5865923,5.302917 47.8094317,9.80814436 45.1353594,12.4325486 C42.4612872,15.100693 37.8707965,14.8382526 34.8847491,11.9076678 C31.8987018,8.977083 31.6758624,4.47185564 34.3499347,1.84745135 Z M12.6500653,1.84745135 C15.3241376,4.47185564 15.1012982,8.977083 12.1152509,11.9076678 C9.12920351,14.8382526 4.53871282,15.100693 1.86464058,12.4325486 C-0.809431672,9.80814436 -0.586592318,5.302917 2.39945503,2.37233221 C5.3409345,-0.558252581 9.93142519,-0.82069301 12.6500653,1.84745135 Z" id="Mickey-Logo" fill="url(#linearGradient-1)"></path>
                <g id="Group-3" transform="translate(51.000000, 5.000000)">
                    <rect id="line" fill-opacity="0.1" fill="#000000" x="0" y="0" width="1" height="28" rx="0.5"></rect>
                    <g id="Group-2" transform="translate(6.000000, 3.000000)">
                        <path d="M1.94,9 L1.94,6.432 L3.008,6.432 C5.132,6.432 6.2,5.088 6.2,3.516 C6.2,1.944 5.132,0.6 3.008,0.6 L0.02,0.6 L0.02,9 L1.94,9 Z M2.78,4.872 L1.94,4.872 L1.94,2.16 L2.78,2.16 C3.596,2.16 4.184,2.532 4.184,3.516 C4.184,4.488 3.632,4.872 2.78,4.872 Z M9.856,9 L9.856,5.4 L13.24,5.4 L13.24,9 L15.16,9 L15.16,0.6 L13.24,0.6 L13.24,3.84 L9.856,3.84 L9.856,0.6 L7.936,0.6 L7.936,9 L9.856,9 Z M21.384,9.168 C23.964,9.168 25.728,7.368 25.728,4.8 C25.728,2.232 23.964,0.432 21.384,0.432 C18.804,0.432 17.04,2.232 17.04,4.8 C17.04,7.368 18.804,9.168 21.384,9.168 Z M21.384,7.524 C19.992,7.524 19.056,6.468 19.056,4.8 C19.056,3.132 19.992,2.088 21.384,2.088 C22.776,2.088 23.712,3.132 23.712,4.8 C23.712,6.468 22.776,7.524 21.384,7.524 Z M30.752,9 L30.752,2.16 L33.224,2.16 L33.224,0.6 L26.36,0.6 L26.36,2.16 L28.832,2.16 L28.832,9 L30.752,9 Z M38.2,9.168 C40.78,9.168 42.544,7.368 42.544,4.8 C42.544,2.232 40.78,0.432 38.2,0.432 C35.62,0.432 33.856,2.232 33.856,4.8 C33.856,7.368 35.62,9.168 38.2,9.168 Z M38.2,7.524 C36.808,7.524 35.872,6.468 35.872,4.8 C35.872,3.132 36.808,2.088 38.2,2.088 C39.592,2.088 40.528,3.132 40.528,4.8 C40.528,6.468 39.592,7.524 38.2,7.524 Z M48.18,9.168 C49.56,9.168 50.616,8.832 51.12,8.604 L51.12,4.536 L48.192,4.536 L48.192,5.928 L49.2,5.928 L49.2,7.44 C48.96,7.488 48.696,7.512 48.408,7.512 C46.86,7.512 45.96,6.408 45.96,4.8 C45.96,3.192 46.908,2.088 48.528,2.088 C49.584,2.088 50.34,2.424 50.88,2.784 L50.88,0.996 C50.448,0.768 49.5,0.432 48.3,0.432 C45.804,0.432 43.944,2.22 43.944,4.8 C43.944,7.38 45.756,9.168 48.18,9.168 Z M55.22,9 L55.22,6.192 L56.348,6.192 L58.1,9 L60.32,9 L58.172,5.748 C59.024,5.244 59.48,4.368 59.48,3.396 C59.48,1.884 58.4,0.6 56.36,0.6 L53.3,0.6 L53.3,9 L55.22,9 Z M56.012,4.632 L55.22,4.632 L55.22,2.16 L56.012,2.16 C56.876,2.16 57.464,2.496 57.464,3.396 C57.464,4.284 56.864,4.632 56.012,4.632 Z M62.572,9 L63.064,7.62 L66.256,7.62 L66.748,9 L68.776,9 L65.5,0.6 L63.82,0.6 L60.544,9 L62.572,9 Z M65.764,6.252 L63.544,6.252 L64.66,3.12 L65.764,6.252 Z M72.048,9 L72.048,3.744 L74.364,6.996 L74.964,6.996 L77.28,3.744 L77.28,9 L79.2,9 L79.2,0.6 L77.52,0.6 L74.664,4.608 L71.808,0.6 L70.128,0.6 L70.128,9 L72.048,9 Z M83.48,9 L83.48,3.744 L85.796,6.996 L86.396,6.996 L88.712,3.744 L88.712,9 L90.632,9 L90.632,0.6 L88.952,0.6 L86.096,4.608 L83.24,0.6 L81.56,0.6 L81.56,9 L83.48,9 Z M98.392,9 L98.392,7.44 L94.912,7.44 L94.912,5.46 L97.792,5.46 L97.792,3.9 L94.912,3.9 L94.912,2.16 L98.392,2.16 L98.392,0.6 L92.992,0.6 L92.992,9 L98.392,9 Z M103.836,9 L103.836,2.16 L106.308,2.16 L106.308,0.6 L99.444,0.6 L99.444,2.16 L101.916,2.16 L101.916,9 L103.836,9 Z M109.58,9 L109.58,6.192 L110.708,6.192 L112.46,9 L114.68,9 L112.532,5.748 C113.384,5.244 113.84,4.368 113.84,3.396 C113.84,1.884 112.76,0.6 110.72,0.6 L107.66,0.6 L107.66,9 L109.58,9 Z M110.372,4.632 L109.58,4.632 L109.58,2.16 L110.372,2.16 C111.236,2.16 111.824,2.496 111.824,3.396 C111.824,4.284 111.224,4.632 110.372,4.632 Z M119.38,9 L119.38,5.916 L122.248,0.6 L120.124,0.6 L118.42,4.08 L116.716,0.6 L114.592,0.6 L117.46,5.916 L117.46,9 L119.38,9 Z" id="PHOTOGRAMMETRY" fill="#000000" fill-rule="nonzero"></path>
                        <mask id="mask-3" fill="white">
                            <use xlink:href="#path-2"></use>
                        </mask>
                        <use id="ASASERVICE" fill="#000000" fill-rule="nonzero" xlink:href="#path-2"></use>
                    </g>
                </g>
            </g>
        </g>
    </g>
</svg>