<?xml version="1.0" encoding="UTF-8"?>
<svg width="178px" height="138px" viewBox="0 0 178 138" version="1.1" xmlns="http://www.w3.org/2000/svg" xmlns:xlink="http://www.w3.org/1999/xlink">
    <!-- Generator: sketchtool 64 (101010) - https://sketch.com -->
    <title>7D432B49-0AF7-4D6E-92BA-0BF1C882A866</title>
    <desc>Created with sketchtool.</desc>
    <g id="3D-Model" stroke="none" stroke-width="1" fill="none" fill-rule="evenodd" fill-opacity="0.05">
        <g id="3D-Model---Desktop-L---Overflow-Menu" transform="translate(-22.000000, -658.000000)" fill="#000000">
            <g id="Sidenav">
                <g id="Combined-Shape">
                    <g>
                        <path d="M116.518252,747.22325 C115.425969,749.845023 114.333685,752.466797 113.459858,755.08857 C112.149117,759.458192 111.27529,763.827814 110.838377,768.197436 L110.838377,768.197436 L110.762144,769.071345 C110.221312,775.771069 110.683636,782.462432 112.149117,788.953142 C115.207512,802.062008 122.635042,814.078469 132.684053,822.817713 C132.684053,823.036194 132.90251,823.036194 132.684053,823.254675 L132.684053,823.254675 L131.373312,823.254675 C113.241401,822.599232 95.3279465,814.078469 83.7497381,798.129348 C81.1282569,794.415169 78.7252325,790.482509 76.9775784,786.331368 L76.9775784,786.331368 L77.8514055,784.146557 C78.288319,783.272633 78.5067758,782.180227 78.9436893,781.306303 C83.7497381,769.726804 92.2695518,759.895154 102.973933,753.340721 C107.343068,750.718948 111.712204,748.752618 116.518252,747.22325 Z M114.770598,773.222502 C116.955166,775.188832 119.139734,777.155162 121.324301,778.68453 C124.819609,781.306303 128.751831,783.491114 132.90251,785.238963 C139.456213,788.079217 146.228372,789.827066 153.218989,790.482509 C154.966643,790.70099 156.714297,790.70099 158.461951,790.70099 C170.040159,790.70099 181.618368,787.642255 191.667379,781.524784 C191.885836,781.306303 192.104292,781.306303 192.104292,781.306303 C191.885836,781.743265 191.885836,782.180227 191.667379,782.617189 C187.735157,793.541245 180.526084,803.809857 170.258616,811.238214 C161.083432,818.011129 150.597507,821.725308 139.893126,822.817713 L139.893126,822.817713 L137.708558,821.288345 C136.834731,820.632902 135.960904,819.977459 135.305534,819.322015 C125.911893,811.238214 119.139734,800.095678 116.299796,787.860736 C115.207512,783.054152 114.770598,778.247567 114.770598,773.222502 Z M170.69553,712.047792 C171.132443,712.484754 171.3509,712.703235 171.787813,712.921716 C176.156949,716.417414 180.08917,720.568555 183.584479,725.156658 C194.507317,740.013373 198.002625,758.147305 194.28886,774.75187 L194.28886,774.75187 L192.322749,776.281237 C191.448922,776.7182 190.575095,777.373643 189.701268,777.810605 C178.996887,784.146557 166.326394,787.205293 153.874359,786.112887 C148.849853,785.675925 144.043805,784.583519 139.456213,783.054152 C141.859237,781.524784 144.262261,780.213897 146.446829,778.466048 C149.942137,775.844275 153.218989,772.78554 156.277383,769.508323 L156.277383,769.508323 L156.82708,768.90039 C161.36749,763.810038 164.898023,758.113693 167.418678,751.811353 C172.66164,739.576411 173.753924,725.59362 170.69553,712.484754 C170.477073,712.266273 170.477073,712.266273 170.69553,712.047792 Z M92.7064653,715.106527 L95.1094897,715.325008 C96.2017735,715.325008 97.0756006,715.543489 98.1678844,715.543489 C110.61992,716.417414 122.635042,721.66096 132.028683,729.744761 C135.742448,733.021978 139.019299,736.517676 141.859237,740.668817 C139.237756,740.450336 136.397818,740.231855 133.55788,740.231855 C128.970288,740.231855 124.601153,740.887298 120.232017,741.761222 C113.459858,743.29059 106.906155,745.912363 100.789366,749.626542 C89.4296139,756.617938 80.2544299,767.323512 75.0114676,779.558454 C75.0114676,779.558454 74.7930108,779.776935 74.7930108,779.995416 C74.574554,779.558454 74.574554,779.121492 74.1376405,778.466048 C67.8023944,755.962494 74.574554,731.055648 92.7064653,715.106527 L92.7064653,715.106527 Z M99.478625,710.081462 C119.576647,696.535633 145.136088,696.317152 165.015654,707.896651 L165.015654,707.896651 L165.889481,710.299943 C166.107938,711.173867 166.326394,712.266273 166.544851,713.140197 C169.384789,725.375139 168.292505,738.265525 163.486456,749.845023 C161.520346,754.433127 159.117321,758.802749 156.058927,762.735409 C155.403556,760.113635 154.748186,757.273381 153.874359,754.651608 C152.563618,750.281986 150.597507,746.349326 148.41294,742.416666 L148.41294,742.416666 L147.988288,741.710912 C144.549576,736.082112 140.120321,730.872124 135.087077,726.467545 C124.819609,717.728301 111.93066,712.266273 98.6047979,711.173867 C98.3863412,711.173867 98.1678844,711.173867 98.3863412,710.955386 C98.8232547,710.518424 99.0417115,710.299943 99.478625,710.081462 Z M183.345766,667.26149 C196.48399,653.88577 219.037942,655.201415 233.708959,669.892779 C248.379976,684.584143 249.474828,707.169374 236.336604,720.32582 C223.19838,733.70154 200.644428,732.385895 185.973411,717.694531 C171.302393,703.003167 170.207541,680.417935 183.345766,667.26149 Z M84.1521714,667.26149 C97.2903958,680.417935 96.1955438,703.003167 81.5245265,717.694531 C66.8535093,732.385895 44.2995574,733.70154 31.161333,720.32582 C18.0231086,707.169374 19.1179606,684.584143 33.7889779,669.892779 C48.2410247,655.201415 70.7949766,653.88577 84.1521714,667.26149 Z"></path>
                    </g>
                </g>
            </g>
        </g>
    </g>
</svg>